<?xml version="1.0" standalone="no"?>
<!DOCTYPE svg PUBLIC "-//W3C//DTD SVG 20010904//EN"
 "http://www.w3.org/TR/2001/REC-SVG-20010904/DTD/svg10.dtd">
<svg version="1.0" xmlns="http://www.w3.org/2000/svg"
 width="1109.000000pt" height="1109.000000pt" viewBox="0 0 1109.000000 1109.000000"
 preserveAspectRatio="xMidYMid meet">
<metadata>
Created by potrace 1.14, written by Peter Selinger 2001-2017
</metadata>
<g transform="translate(0.000000,1109.000000) scale(0.100000,-0.100000)"
fill="#000000" stroke="none">
<path d="M5308 11086 c-1 -2 -46 -6 -98 -10 -52 -4 -113 -8 -135 -11 -22 -2
-69 -6 -105 -9 -36 -3 -76 -8 -90 -10 -27 -5 -166 -26 -202 -30 -28 -4 -69
-11 -228 -42 -338 -67 -750 -195 -1075 -336 -93 -40 -393 -188 -475 -234 -425
-238 -812 -534 -1167 -891 -118 -120 -148 -153 -290 -318 -280 -327 -593 -829
-782 -1255 -120 -270 -272 -717 -327 -960 -4 -19 -8 -37 -9 -40 -4 -16 -29
-127 -31 -135 -18 -93 -35 -177 -39 -202 -3 -18 -7 -45 -10 -60 -16 -102 -34
-225 -40 -283 -2 -25 -7 -65 -9 -90 -33 -285 -38 -872 -12 -1130 2 -19 7 -72
10 -117 4 -46 9 -91 10 -100 2 -10 7 -49 11 -88 4 -38 8 -72 10 -75 2 -3 6
-32 9 -65 4 -33 9 -67 11 -75 2 -8 6 -33 10 -55 4 -32 12 -77 20 -115 1 -3 5
-25 9 -50 4 -25 19 -92 33 -150 14 -58 27 -116 29 -129 3 -13 29 -107 59 -210
140 -484 314 -881 578 -1316 98 -161 376 -544 447 -615 3 -3 39 -43 80 -90
193 -219 477 -479 725 -666 150 -113 451 -312 525 -347 8 -4 51 -28 95 -52
179 -102 523 -261 705 -327 302 -109 667 -217 825 -244 17 -2 37 -7 45 -9 23
-7 269 -53 320 -60 25 -3 56 -8 70 -10 14 -3 43 -7 65 -10 86 -10 121 -15 155
-20 64 -9 232 -22 403 -32 231 -12 717 -7 962 12 22 2 75 6 117 9 43 3 90 8
105 10 16 2 60 7 98 11 39 3 81 8 95 10 26 4 37 6 176 25 44 6 91 13 105 15
13 3 42 8 64 11 60 8 380 73 470 95 44 11 87 22 95 24 301 68 782 232 1110
380 433 194 856 457 1190 740 52 44 103 88 113 98 16 16 12 24 -90 175 -60 86
-140 204 -180 262 -413 606 -514 754 -652 957 -74 109 -138 200 -143 201 -4 2
-8 8 -8 12 0 12 -131 200 -140 200 -4 0 -15 -10 -26 -21 -15 -18 -158 -140
-224 -192 -49 -40 -201 -141 -295 -199 -105 -64 -461 -248 -481 -248 -5 0 -22
-7 -38 -15 -82 -43 -513 -192 -605 -210 -13 -2 -38 -9 -55 -14 -35 -12 -332
-77 -388 -85 -21 -3 -55 -9 -75 -12 -21 -3 -48 -7 -61 -9 -13 -2 -53 -7 -90
-11 -37 -3 -76 -8 -87 -10 -122 -23 -667 -22 -795 1 -14 3 -47 7 -75 9 -67 7
-177 23 -245 36 -30 6 -66 13 -80 16 -148 28 -454 126 -608 195 -595 266
-1033 672 -1333 1233 -112 210 -227 543 -265 766 -2 14 -6 34 -9 46 -2 11 -7
44 -11 72 l-6 52 3924 0 3924 0 -2 433 c-1 389 -7 629 -19 757 -2 25 -7 77
-10 115 -12 131 -14 150 -19 205 -4 30 -8 64 -10 76 -2 12 -7 45 -11 75 -10
81 -55 360 -59 368 -2 3 -7 24 -10 46 -25 159 -114 508 -192 745 -147 455
-334 864 -563 1234 -47 76 -94 152 -105 170 -10 17 -21 33 -25 36 -4 3 -26 34
-50 70 -49 72 -197 269 -215 285 -6 6 -22 24 -35 40 -82 107 -393 427 -536
552 -151 132 -368 297 -525 398 -41 26 -98 63 -127 82 -28 18 -54 33 -58 33
-3 0 -22 12 -41 26 -19 15 -34 23 -34 19 0 -4 -6 -3 -12 3 -38 30 -309 166
-481 241 -187 81 -599 221 -722 245 -11 3 -47 11 -80 20 -33 8 -75 18 -94 21
-19 3 -37 8 -40 10 -4 2 -58 13 -121 24 -63 12 -124 23 -135 25 -48 9 -130 21
-215 31 -30 4 -66 8 -80 10 -29 4 -140 15 -220 22 -64 5 -766 13 -772 9z m652
-2219 c14 -3 52 -8 85 -11 33 -4 72 -8 88 -11 170 -29 174 -30 291 -60 322
-82 593 -211 847 -402 97 -73 137 -107 254 -219 126 -121 305 -368 408 -564
160 -302 265 -655 293 -981 l7 -77 -2601 0 -2600 0 4 22 c2 11 6 44 10 71 15
132 78 374 145 560 54 149 175 405 234 493 19 30 35 56 35 58 0 7 90 134 143
204 67 87 85 106 202 224 292 295 657 504 1070 612 70 19 60 16 195 43 121 23
165 29 275 37 44 4 82 8 85 11 6 6 498 -4 530 -10z"/>
</g>
</svg>
